<svg width="24" height="26" viewBox="0 0 24 26" fill="none" xmlns="http://www.w3.org/2000/svg">
<path d="M22.6071 4C22.869 4 23 4.125 23 4.375V5.125C23 5.375 22.869 5.5 22.6071 5.5H21.6741L20.0536 22.9375C19.9881 23.5 19.7262 23.9844 19.2679 24.3906C18.8095 24.7969 18.2857 25 17.6964 25H6.30357C5.71429 25 5.19048 24.7969 4.73214 24.3906C4.27381 23.9844 4.0119 23.5 3.94643 22.9375L2.32589 5.5H1.39286C1.13095 5.5 1 5.375 1 5.125V4.375C1 4.125 1.13095 4 1.39286 4H6.5L8.16964 1.89062C8.36607 1.64062 8.64435 1.4375 9.00446 1.28125C9.36458 1.09375 9.70833 1 10.0357 1H13.9643C14.2917 1 14.6354 1.09375 14.9955 1.28125C15.3557 1.4375 15.6339 1.64062 15.8304 1.89062L17.5 4H22.6071ZM9.39732 2.78125L8.46429 4H15.5357L14.6027 2.78125C14.439 2.59375 14.2262 2.5 13.9643 2.5H10.0357C9.77381 2.5 9.56101 2.59375 9.39732 2.78125ZM18.4821 22.7969L20.1027 5.5H3.89732L5.51786 22.7969C5.51786 22.9844 5.5997 23.1406 5.76339 23.2656C5.92708 23.4219 6.10714 23.5 6.30357 23.5H17.6964C17.8274 23.5 17.942 23.4688 18.0402 23.4062C18.1711 23.3437 18.2693 23.25 18.3348 23.125C18.433 23.0312 18.4821 22.9219 18.4821 22.7969Z" fill="white" stroke="white"/>
</svg>
