<svg width="24" height="25" viewBox="0 0 24 25" fill="none" xmlns="http://www.w3.org/2000/svg">
<g clip-path="url(#clip0_893_4224)">
<path d="M12 14.5C13.6569 14.5 15 13.1569 15 11.5C15 9.84315 13.6569 8.5 12 8.5C10.3431 8.5 9 9.84315 9 11.5C9 13.1569 10.3431 14.5 12 14.5Z" stroke="#4E4B66" stroke-width="2" stroke-linecap="round" stroke-linejoin="round"/>
<path d="M17.657 17.1567L13.414 21.3997C13.039 21.7743 12.5306 21.9848 12.0005 21.9848C11.4704 21.9848 10.962 21.7743 10.587 21.3997L6.343 17.1567C5.22422 16.0379 4.46234 14.6124 4.15369 13.0606C3.84504 11.5087 4.00349 9.90022 4.60901 8.43844C5.21452 6.97665 6.2399 5.72725 7.55548 4.84821C8.87107 3.96918 10.4178 3.5 12 3.5C13.5822 3.5 15.1289 3.96918 16.4445 4.84821C17.7601 5.72725 18.7855 6.97665 19.391 8.43844C19.9965 9.90022 20.155 11.5087 19.8463 13.0606C19.5377 14.6124 18.7758 16.0379 17.657 17.1567V17.1567Z" stroke="#4E4B66" stroke-width="2" stroke-linecap="round" stroke-linejoin="round"/>
</g>
<defs>
<clipPath id="clip0_893_4224">
<rect width="24" height="24" fill="white" transform="translate(0 0.5)"/>
</clipPath>
</defs>
</svg>
