<svg width="16" height="17" viewBox="0 0 16 17" fill="none" xmlns="http://www.w3.org/2000/svg">
<path d="M8 0.5C3.58171 0.5 0 4.08171 0 8.5C0 12.9183 3.58171 16.5 8 16.5C12.4183 16.5 16 12.9183 16 8.5C16 4.08171 12.4183 0.5 8 0.5ZM11.7785 11.6856C11.7272 11.7458 10.4954 13.1608 8.23494 13.1608C5.50294 13.1608 3.57416 11.1201 3.57416 8.46507C3.57416 5.84239 5.57429 3.83923 8.21165 3.83923C10.3715 3.83923 11.5008 5.04294 11.5478 5.09419C11.6058 5.15732 11.6411 5.23787 11.6483 5.32323C11.6555 5.40859 11.6343 5.49394 11.5878 5.5659L10.8658 6.68381C10.7352 6.88597 10.4538 6.92094 10.2776 6.75784C10.2701 6.75094 9.42187 5.98752 8.28152 5.98752C6.7939 5.98752 5.89713 7.07058 5.89713 8.44177C5.89713 9.71926 6.72016 11.0125 8.29316 11.0125C9.54145 11.0125 10.399 10.0984 10.4075 10.0891C10.573 9.90958 10.861 9.92674 11.0045 10.1231L11.7964 11.206C11.8477 11.2763 11.8739 11.3619 11.8707 11.4489C11.8675 11.5359 11.835 11.6193 11.7785 11.6856Z" fill="#4E4B66"/>
</svg>
